HIERARCHY
ROOT Hips
{
	OFFSET 0.000000 0.000000 0.000000
	CHANNELS 6 Xposition Yposition Zposition Xrotation Yrotation Zrotation
	JOINT Thigh.L
	{
		OFFSET 0.055764 0.027501 -0.095303
		CHANNELS 3 Xrotation Yrotation Zrotation
		JOINT Shin.L
		{
			OFFSET 0.060609 0.006445 -0.414445
			CHANNELS 3 Xrotation Yrotation Zrotation
			JOINT Foot.L
			{
				OFFSET -0.042376 0.032386 -0.440015
				CHANNELS 3 Xrotation Yrotation Zrotation
				JOINT Toe.L
				{
					OFFSET 0.048349 -0.126911 -0.064678
					CHANNELS 3 Xrotation Yrotation Zrotation
					End Site
					{
						OFFSET 0.000000 0.050000 0.000000
					}
				}
			}
		}
	}
	JOINT Thigh.R
	{
		OFFSET -0.060941 0.021775 -0.107916
		CHANNELS 3 Xrotation Yrotation Zrotation
		JOINT Shin.R
		{
			OFFSET -0.049531 0.014555 -0.395793
			CHANNELS 3 Xrotation Yrotation Zrotation
			JOINT Foot.R
			{
				OFFSET 0.014150 0.020439 -0.449108
				CHANNELS 3 Xrotation Yrotation Zrotation
				JOINT Toe.R
				{
					OFFSET -0.039730 -0.127740 -0.064489
					CHANNELS 3 Xrotation Yrotation Zrotation
					End Site
					{
						OFFSET 0.000000 0.050000 0.000000
					}
				}
			}
		}
	}
	JOINT Spine
	{
		OFFSET -0.002740 0.027327 0.114620
		CHANNELS 3 Xrotation Yrotation Zrotation
		JOINT Spine.2
		{
			OFFSET 0.009215 0.006445 0.141763
			CHANNELS 3 Xrotation Yrotation Zrotation
			JOINT Chest
			{
				OFFSET -0.010955 -0.023740 0.056451
				CHANNELS 3 Xrotation Yrotation Zrotation
				JOINT Neck
				{
					OFFSET -0.012278 0.025927 0.170112
					CHANNELS 3 Xrotation Yrotation Zrotation
					JOINT Head
					{
						OFFSET 0.025580 -0.020691 0.168421
						CHANNELS 3 Xrotation Yrotation Zrotation
						End Site
						{
							OFFSET 0.000000 0.050000 0.000000
						}
					}
				}
				JOINT Clavicle.L
				{
					OFFSET 0.047713 0.004458 0.087668
					CHANNELS 3 Xrotation Yrotation Zrotation
					JOINT UpperArm.L
					{
						OFFSET 0.128063 0.013969 0.058818
						CHANNELS 3 Xrotation Yrotation Zrotation
						JOINT ForeArm.L
						{
							OFFSET 0.270854 0.043399 -0.076019
							CHANNELS 3 Xrotation Yrotation Zrotation
							JOINT Hand.L
							{
								OFFSET 0.274683 0.000676 0.022791
								CHANNELS 3 Xrotation Yrotation Zrotation
								JOINT Thumb1.L
								{
									OFFSET 0.154589 0.000294 0.009923
									CHANNELS 3 Xrotation Yrotation Zrotation
									JOINT Thumb2.L
									{
										OFFSET 0.029897 0.000074 0.002481
										CHANNELS 3 Xrotation Yrotation Zrotation
										End Site
										{
											OFFSET 0.024914 0.000061 0.002067
										}
									}
								}
								JOINT Index1.L
								{
									OFFSET 0.137589 0.000294 0.009923
									CHANNELS 3 Xrotation Yrotation Zrotation
									JOINT Index2.L
									{
										OFFSET 0.029897 0.000074 0.002481
										CHANNELS 3 Xrotation Yrotation Zrotation
										JOINT Index3.L
										{
											OFFSET 0.021925 0.000054 0.001819
											CHANNELS 3 Xrotation Yrotation Zrotation
											End Site
											{
												OFFSET 0.017938 0.000044 0.001488
											}
										}
									}
								}
								JOINT Middle1.L
								{
									OFFSET 0.119589 0.000294 0.009923
									CHANNELS 3 Xrotation Yrotation Zrotation
									JOINT Middle2.L
									{
										OFFSET 0.030894 0.000076 0.002563
										CHANNELS 3 Xrotation Yrotation Zrotation
										JOINT Middle3.L
										{
											OFFSET 0.021925 0.000054 0.001819
											CHANNELS 3 Xrotation Yrotation Zrotation
											End Site
											{
												OFFSET 0.017938 0.000044 0.001488
											}
										}
									}
								}
								JOINT Ring1.L
								{
									OFFSET 0.101589 0.000294 0.009923
									CHANNELS 3 Xrotation Yrotation Zrotation
									JOINT Ring2.L
									{
										OFFSET 0.028901 0.000071 0.002398
										CHANNELS 3 Xrotation Yrotation Zrotation
										JOINT Ring3.L
										{
											OFFSET 0.019931 0.000049 0.001654
											CHANNELS 3 Xrotation Yrotation Zrotation
											End Site
											{
												OFFSET 0.016942 0.000042 0.001406
											}
										}
									}
								}
								JOINT Pinky1.L
								{
									OFFSET 0.085589 0.000294 0.009923
									CHANNELS 3 Xrotation Yrotation Zrotation
									JOINT Pinky2.L
									{
										OFFSET 0.023918 0.000059 0.001985
										CHANNELS 3 Xrotation Yrotation Zrotation
										JOINT Pinky3.L
										{
											OFFSET 0.016942 0.000042 0.001406
											CHANNELS 3 Xrotation Yrotation Zrotation
											End Site
											{
												OFFSET 0.013952 0.000034 0.001158
											}
										}
									}
								}
							}
						}
					}
				}
				JOINT Clavicle.R
				{
					OFFSET -0.048672 0.010641 0.086788
					CHANNELS 3 Xrotation Yrotation Zrotation
					JOINT UpperArm.R
					{
						OFFSET -0.111093 0.010458 0.054933
						CHANNELS 3 Xrotation Yrotation Zrotation
						JOINT ForeArm.R
						{
							OFFSET -0.289292 0.027869 -0.039957
							CHANNELS 3 Xrotation Yrotation Zrotation
							JOINT Hand.R
							{
								OFFSET -0.270975 0.014270 -0.005245
								CHANNELS 3 Xrotation Yrotation Zrotation
								JOINT Thumb1.R
								{
									OFFSET -0.154812 0.006309 -0.002319
									CHANNELS 3 Xrotation Yrotation Zrotation
									JOINT Thumb2.R
									{
										OFFSET -0.029953 0.001577 -0.000580
										CHANNELS 3 Xrotation Yrotation Zrotation
										End Site
										{
											OFFSET -0.024961 0.001314 -0.000483
										}
									}
								}
								JOINT Index1.R
								{
									OFFSET -0.137812 0.006309 -0.002319
									CHANNELS 3 Xrotation Yrotation Zrotation
									JOINT Index2.R
									{
										OFFSET -0.029953 0.001577 -0.000580
										CHANNELS 3 Xrotation Yrotation Zrotation
										JOINT Index3.R
										{
											OFFSET -0.021965 0.001157 -0.000425
											CHANNELS 3 Xrotation Yrotation Zrotation
											End Site
											{
												OFFSET -0.017972 0.000946 -0.000348
											}
										}
									}
								}
								JOINT Middle1.R
								{
									OFFSET -0.119812 0.006309 -0.002319
									CHANNELS 3 Xrotation Yrotation Zrotation
									JOINT Middle2.R
									{
										OFFSET -0.030951 0.001630 -0.000599
										CHANNELS 3 Xrotation Yrotation Zrotation
										JOINT Middle3.R
										{
											OFFSET -0.021965 0.001157 -0.000425
											CHANNELS 3 Xrotation Yrotation Zrotation
											End Site
											{
												OFFSET -0.017972 0.000946 -0.000348
											}
										}
									}
								}
								JOINT Ring1.R
								{
									OFFSET -0.101812 0.006309 -0.002319
									CHANNELS 3 Xrotation Yrotation Zrotation
									JOINT Ring2.R
									{
										OFFSET -0.028954 0.001525 -0.000560
										CHANNELS 3 Xrotation Yrotation Zrotation
										JOINT Ring3.R
										{
											OFFSET -0.019969 0.001052 -0.000387
											CHANNELS 3 Xrotation Yrotation Zrotation
											End Site
											{
												OFFSET -0.016973 0.000894 -0.000329
											}
										}
									}
								}
								JOINT Pinky1.R
								{
									OFFSET -0.085812 0.006309 -0.002319
									CHANNELS 3 Xrotation Yrotation Zrotation
									JOINT Pinky2.R
									{
										OFFSET -0.023962 0.001262 -0.000464
										CHANNELS 3 Xrotation Yrotation Zrotation
										JOINT Pinky3.R
										{
											OFFSET -0.016973 0.000894 -0.000329
											CHANNELS 3 Xrotation Yrotation Zrotation
											End Site
											{
												OFFSET -0.013978 0.000736 -0.000271
											}
										}
									}
								}
							}
						}
					}
				}
			}
		}
	}
}
MOTION
Frames: 4
Frame Time: 0.04166667
0.000316 -0.037235 1.031145 -4.099070 0.368588 -0.541425 5.774125 -2.193884 2.249785 1.847336 1.420298 -10.875265 -10.416609 -2.776803 9.300236 -0.849952 -2.045353 -1.296318 0.892000 3.456415 -2.876354 8.572218 1.039358 5.426691 -10.322729 -2.027490 -6.268786 -0.430848 -1.687944 0.684370 3.209888 1.069723 2.372822 -0.249006 -0.227643 -1.256783 2.904277 0.795860 0.111789 4.724528 0.650560 2.245147 3.197124 -0.939674 -0.271649 -1.103893 19.806866 -1.233968 27.046407 44.226324 -27.550658 19.609464 -0.333765 -23.866866 -2.524640 -0.265794 -10.966365 0.000000 0.000000 0.000000 0.000000 0.000000 0.000000 0.000000 0.000000 0.000000 0.000000 0.000000 0.000000 0.000000 0.000000 0.000000 0.000000 0.000000 0.000000 0.000000 0.000000 0.000000 0.000000 0.000000 0.000000 0.000000 0.000000 0.000000 0.000000 0.000000 0.000000 0.000000 0.000000 0.000000 0.000000 0.000000 0.000000 0.000000 0.000000 0.000000 0.000000 0.000000 0.000000 0.236081 -19.723699 6.462835 30.293455 -46.036184 29.441349 10.730821 -0.469338 26.402064 -5.202324 -0.118201 7.652449 0.000000 0.000000 0.000000 0.000000 0.000000 0.000000 0.000000 0.000000 0.000000 0.000000 0.000000 0.000000 0.000000 0.000000 0.000000 0.000000 0.000000 0.000000 0.000000 0.000000 0.000000 0.000000 0.000000 0.000000 0.000000 0.000000 0.000000 0.000000 0.000000 0.000000 0.000000 0.000000 0.000000 0.000000 0.000000 0.000000 0.000000 0.000000 0.000000 0.000000 0.000000 0.000000
-0.000198 -0.037503 1.031182 -4.129857 0.386436 -0.611439 5.786483 -2.164301 2.212697 1.890768 1.401266 -10.933064 -10.418111 -2.854122 9.411273 -0.863476 -2.033676 -1.295330 0.943243 3.477576 -2.847459 8.524179 1.036949 5.509041 -10.321926 -2.106327 -6.261060 -0.439916 -1.674317 0.690118 3.205962 1.079442 2.398348 -0.285584 -0.215813 -1.239663 2.908872 0.814774 0.151478 4.728695 0.629214 2.300282 3.320818 -0.872608 -0.304359 -1.134101 19.779822 -1.230871 27.092962 44.260188 -27.580996 19.662333 -0.328157 -23.840929 -2.457329 -0.276892 -11.005532 0.000000 0.000000 0.000000 0.000000 0.000000 0.000000 0.000000 0.000000 0.000000 0.000000 0.000000 0.000000 0.000000 0.000000 0.000000 0.000000 0.000000 0.000000 0.000000 0.000000 0.000000 0.000000 0.000000 0.000000 0.000000 0.000000 0.000000 0.000000 0.000000 0.000000 0.000000 0.000000 0.000000 0.000000 0.000000 0.000000 0.000000 0.000000 0.000000 0.000000 0.000000 0.000000 0.248294 -19.733221 6.478470 30.350782 -45.952904 29.502584 10.915033 -0.490219 26.313187 -5.104821 -0.103491 7.655781 0.000000 0.000000 0.000000 0.000000 0.000000 0.000000 0.000000 0.000000 0.000000 0.000000 0.000000 0.000000 0.000000 0.000000 0.000000 0.000000 0.000000 0.000000 0.000000 0.000000 0.000000 0.000000 0.000000 0.000000 0.000000 0.000000 0.000000 0.000000 0.000000 0.000000 0.000000 0.000000 0.000000 0.000000 0.000000 0.000000 0.000000 0.000000 0.000000 0.000000 0.000000 0.000000
-0.000292 -0.036830 1.031170 -4.096443 0.384513 -0.679322 5.720743 -2.141576 2.175756 2.016781 1.395921 -10.849149 -10.434666 -2.901641 9.430814 -0.869987 -2.040258 -1.299214 0.982114 3.507838 -2.861458 8.428879 1.024318 5.566697 -10.335140 -2.176361 -6.211919 -0.434168 -1.659981 0.687931 3.203680 1.089188 2.452578 -0.308024 -0.203114 -1.245834 2.907659 0.817355 0.180900 4.707966 0.618519 2.336042 3.410287 -0.854195 -0.291683 -1.154687 19.753473 -1.233231 27.170898 44.258149 -27.594446 19.645117 -0.271329 -23.847431 -2.505521 -0.346091 -11.029414 0.000000 0.000000 0.000000 0.000000 0.000000 0.000000 0.000000 0.000000 0.000000 0.000000 0.000000 0.000000 0.000000 0.000000 0.000000 0.000000 0.000000 0.000000 0.000000 0.000000 0.000000 0.000000 0.000000 0.000000 0.000000 0.000000 0.000000 0.000000 0.000000 0.000000 0.000000 0.000000 0.000000 0.000000 0.000000 0.000000 0.000000 0.000000 0.000000 0.000000 0.000000 0.000000 0.259117 -19.730997 6.498525 30.421703 -45.898847 29.531708 11.029339 -0.540145 26.284292 -5.050921 -0.063973 7.651395 0.000000 0.000000 0.000000 0.000000 0.000000 0.000000 0.000000 0.000000 0.000000 0.000000 0.000000 0.000000 0.000000 0.000000 0.000000 0.000000 0.000000 0.000000 0.000000 0.000000 0.000000 0.000000 0.000000 0.000000 0.000000 0.000000 0.000000 0.000000 0.000000 0.000000 0.000000 0.000000 0.000000 0.000000 0.000000 0.000000 0.000000 0.000000 0.000000 0.000000 0.000000 0.000000
-0.000353 -0.037151 1.031189 -4.133559 0.371095 -0.723177 5.738862 -2.108471 2.137302 2.056654 1.402594 -10.715937 -10.431325 -2.926815 9.434114 -0.874680 -2.031240 -1.296406 1.051252 3.545336 -2.867921 8.363437 1.014522 5.546127 -10.354682 -2.249561 -6.160551 -0.428351 -1.655053 0.688951 3.224115 1.106855 2.484170 -0.351455 -0.180598 -1.232426 2.935059 0.826779 0.206644 4.728406 0.604661 2.335020 3.502956 -0.840906 -0.310232 -1.201804 19.722334 -1.216160 27.208329 44.252105 -27.581321 19.658739 -0.255388 -23.931177 -2.579031 -0.346891 -11.100991 0.000000 0.000000 0.000000 0.000000 0.000000 0.000000 0.000000 0.000000 0.000000 0.000000 0.000000 0.000000 0.000000 0.000000 0.000000 0.000000 0.000000 0.000000 0.000000 0.000000 0.000000 0.000000 0.000000 0.000000 0.000000 0.000000 0.000000 0.000000 0.000000 0.000000 0.000000 0.000000 0.000000 0.000000 0.000000 0.000000 0.000000 0.000000 0.000000 0.000000 0.000000 0.000000 0.239978 -19.765393 6.507461 30.476865 -45.846144 29.554297 11.114227 -0.536641 26.250546 -4.914837 -0.043825 7.676049 0.000000 0.000000 0.000000 0.000000 0.000000 0.000000 0.000000 0.000000 0.000000 0.000000 0.000000 0.000000 0.000000 0.000000 0.000000 0.000000 0.000000 0.000000 0.000000 0.000000 0.000000 0.000000 0.000000 0.000000 0.000000 0.000000 0.000000 0.000000 0.000000 0.000000 0.000000 0.000000 0.000000 0.000000 0.000000 0.000000 0.000000 0.000000 0.000000 0.000000 0.000000 0.000000
